<svg width="40" height="40" viewBox="0 0 40 40" fill="none" xmlns="http://www.w3.org/2000/svg" role="img" aria-label="Celery">
  <rect x="2" y="2" width="36" height="36" rx="10" fill="#F5FBF0"/>
  <path d="M30.5 13.5C27.9 10.8 24.3 9.2 20.2 9.2C13.5 9.2 8.5 13.8 8.5 20C8.5 26.2 13.5 30.8 20.2 30.8C24.5 30.8 28.2 29 30.8 26.1L27.3 22.8C25.5 24.7 23.3 25.8 20.5 25.8C16.7 25.8 13.9 23.3 13.9 20C13.9 16.7 16.7 14.2 20.5 14.2C23.1 14.2 25.3 15.2 27 17L30.5 13.5Z" fill="#7AC943"/>
  <path d="M20 9.2C22.8 9.2 25.3 10 27.4 11.5" stroke="#0B7A6E" stroke-width="2.2" stroke-linecap="round"/>
</svg>
