<svg width="40" height="40" viewBox="0 0 40 40" fill="none" xmlns="http://www.w3.org/2000/svg" role="img" aria-label="OBS">
  <rect x="2" y="2" width="36" height="36" rx="10" fill="#F2FAF8"/>
  <circle cx="20" cy="20" r="12" fill="#0B4E58"/>
  <path d="M20 8C24.6 12.1 24.9 17.4 20.8 21.1C23.8 20.7 27 22.1 29.2 25.1C26.8 29.2 22.2 31.4 17.6 30.7C19.5 25.1 17.4 21.6 13 19.7C15.4 18.4 17.8 14.5 20 8Z" fill="#FFFFFF" opacity=".92"/>
  <path d="M13.5 20.2C9.8 19.1 7.3 16.4 6.5 12.7C9.6 9.3 14.3 7.8 18.8 9.2C15.4 12.8 14.6 16.4 16.7 20.1C15.6 19.9 14.5 19.9 13.5 20.2Z" fill="#7AC7C0"/>
  <path d="M21 21.2C24.1 22.9 25.7 25.9 25.3 29.7C21.4 31.9 16.6 31.6 13 28.9C17.5 27.7 20.2 25.1 21 21.2Z" fill="#D5A44A"/>
</svg>
